<svg width="487" height="102" viewBox="0 0 487 102" fill="none" xmlns="http://www.w3.org/2000/svg">
<path fill-rule="evenodd" clip-rule="evenodd" d="M100.633 5.0317C100.633 2.2528 98.3802 5.75826e-05 95.6013 5.75826e-05L19.9406 0C16.6344 0 13.7414 0.479548 11.2618 1.43866C8.78213 2.47155 6.71575 3.83644 5.06265 5.53333C3.34066 7.304 2.0664 9.296 1.23985 11.5093C0.413289 13.7964 0 16.1573 0 18.592V30.1899C0 35.7477 4.50549 40.2532 10.0633 40.2532H70.4431L40.2533 20.1266H95.6013C98.3802 20.1266 100.633 17.8738 100.633 15.0949V5.0317ZM6.1977e-05 95.6014C6.1977e-05 98.3803 2.2528 100.633 5.0317 100.633L80.6924 100.633C83.9986 100.633 86.8915 100.154 89.3712 99.1944C91.8509 98.1615 93.9172 96.7966 95.5703 95.0997C97.2923 93.3291 98.5666 91.3371 99.3931 89.1237C100.22 86.8366 100.633 84.4757 100.633 82.0411V70.4432C100.633 64.8854 96.1275 60.3799 90.5697 60.3799H30.1899L60.3797 80.5065H5.0317C2.2528 80.5065 6.1977e-05 82.7592 6.1977e-05 85.5381V95.6014Z" fill="#6966FB"/>
<path d="M144.075 71.926C144.668 89.7777 159.226 100.647 182.084 100.647C205.667 100.647 220.62 88.9872 220.62 70.5426C220.62 56.0504 212.32 47.8821 193.283 43.7979L181.755 41.3606C170.82 38.8574 166.209 35.5637 166.209 29.701C166.209 22.6525 172.796 17.9755 182.611 17.9755C192.558 17.9755 199.607 22.8501 200.265 30.8867H218.908C218.578 13.6937 204.679 2.29759 182.545 2.29759C161.334 2.29759 146.183 13.8913 146.183 31.4137C146.183 45.313 154.813 54.206 172.335 57.9608L184.719 60.6616C196.181 63.2306 200.726 66.6561 200.726 72.8482C200.726 79.8308 193.48 84.9031 182.875 84.9031C172.335 84.9031 164.167 79.7649 163.244 71.926H144.075ZM253.101 86.2205C246.58 86.2205 242.232 82.9268 242.232 77.657C242.232 72.6506 246.316 69.4228 253.496 68.8958L268.384 67.9735V73.1117C268.384 80.753 261.467 86.2205 253.101 86.2205ZM246.777 100.12C255.604 100.12 264.366 95.7063 268.318 88.1967H268.713V99H287.29V50.4512C287.29 36.2225 275.498 26.8684 257.383 26.8684C238.675 26.8684 227.015 36.2884 226.291 49.9901H243.879C244.801 44.786 249.346 41.2289 256.527 41.2289C263.773 41.2289 268.384 45.0495 268.384 51.6369V56.3139L250.598 57.3679C233.01 58.4219 223.129 65.8656 223.129 78.7109C223.129 91.4245 233.339 100.12 246.777 100.12ZM336.305 100.12C354.091 100.12 364.96 86.4181 364.96 63.6918C364.96 40.8995 354.025 27.2637 336.239 27.2637C326.16 27.2637 318.321 32.2701 314.435 40.636H314.04V3.94443H294.804V99H313.776V86.8793H314.171C318.058 95.1135 325.963 100.12 336.305 100.12ZM329.652 42.6781C339.203 42.6781 345.264 50.8464 345.264 63.6918C345.264 76.603 339.269 84.6396 329.652 84.6396C320.298 84.6396 313.974 76.4712 313.974 63.6918C313.974 51.044 320.363 42.6781 329.652 42.6781ZM401.261 41.0971C409.825 41.0971 415.688 47.2892 416.083 56.3139H386.111C386.769 47.4869 392.83 41.0971 401.261 41.0971ZM416.346 77.3935C414.568 82.7951 409.166 86.2864 402.118 86.2864C392.303 86.2864 385.913 79.3697 385.913 69.291V68.1053H434.593V62.2425C434.593 40.7678 421.616 26.8684 401.064 26.8684C380.182 26.8684 367.007 41.4924 367.007 64.0211C367.007 86.6158 380.05 100.515 401.788 100.515C419.245 100.515 431.893 91.2269 434.001 77.3935H416.346ZM439.144 99H458.379V59.5417C458.379 49.5948 463.913 43.7979 473.398 43.7979C476.165 43.7979 478.8 44.2591 480.381 44.9178V27.9883C479.063 27.593 477.153 27.2637 474.913 27.2637C466.613 27.2637 460.619 32.1383 458.116 41.0971H457.72V28.3835H439.144V99Z" fill="#EFEFF7"/>
</svg>
